<mxfile host="app.diagrams.net" modified="2022-10-18T18:07:10.936Z" agent="5.0 (X11; Linux x86_64) AppleWebKit/537.36 (KHTML, like Gecko) Chrome/106.0.0.0 Safari/537.36" etag="FZxAkvwo3rKYmaxJz_Wi" version="20.4.1" type="github">
  <diagram id="G97gYzhfeNbKDUW5nvtk" name="PÃ gina-1">
    <mxGraphModel dx="1354" dy="760" grid="1" gridSize="10" guides="1" tooltips="1" connect="1" arrows="1" fold="1" page="1" pageScale="1" pageWidth="827" pageHeight="1169" math="0" shadow="0">
      <root>
        <mxCell id="0" />
        <mxCell id="1" parent="0" />
        <mxCell id="ljxNdWzIBPx_CM_LcYyN-9" style="edgeStyle=orthogonalEdgeStyle;rounded=0;orthogonalLoop=1;jettySize=auto;html=1;entryX=0.5;entryY=0;entryDx=0;entryDy=0;entryPerimeter=0;" parent="1" source="ljxNdWzIBPx_CM_LcYyN-1" target="ljxNdWzIBPx_CM_LcYyN-7" edge="1">
          <mxGeometry relative="1" as="geometry" />
        </mxCell>
        <mxCell id="ljxNdWzIBPx_CM_LcYyN-1" value="" style="ellipse;html=1;shape=startState;fillColor=#000000;strokeColor=#ff0000;" parent="1" vertex="1">
          <mxGeometry x="80" y="30" width="30" height="30" as="geometry" />
        </mxCell>
        <mxCell id="ljxNdWzIBPx_CM_LcYyN-18" style="edgeStyle=orthogonalEdgeStyle;rounded=0;orthogonalLoop=1;jettySize=auto;html=1;dashed=1;startArrow=none;endArrow=none;endFill=0;" parent="1" source="zJJ63YuxqZ6idGATVhV--2" edge="1">
          <mxGeometry relative="1" as="geometry">
            <mxPoint x="95" y="600" as="targetPoint" />
          </mxGeometry>
        </mxCell>
        <mxCell id="ljxNdWzIBPx_CM_LcYyN-7" value="Empleado" style="shape=umlActor;verticalLabelPosition=bottom;verticalAlign=top;html=1;" parent="1" vertex="1">
          <mxGeometry x="80" y="190" width="30" height="60" as="geometry" />
        </mxCell>
        <mxCell id="ljxNdWzIBPx_CM_LcYyN-10" value="Sistema" style="shape=umlLifeline;perimeter=lifelinePerimeter;whiteSpace=wrap;html=1;container=1;collapsible=0;recursiveResize=0;outlineConnect=0;" parent="1" vertex="1">
          <mxGeometry x="180" y="130" width="100" height="470" as="geometry" />
        </mxCell>
        <mxCell id="ljxNdWzIBPx_CM_LcYyN-12" value="" style="html=1;points=[];perimeter=orthogonalPerimeter;" parent="ljxNdWzIBPx_CM_LcYyN-10" vertex="1">
          <mxGeometry x="45" y="80" width="10" height="40" as="geometry" />
        </mxCell>
        <mxCell id="ljxNdWzIBPx_CM_LcYyN-20" value="Return" style="text;html=1;align=center;verticalAlign=middle;resizable=0;points=[];autosize=1;strokeColor=none;fillColor=none;" parent="ljxNdWzIBPx_CM_LcYyN-10" vertex="1">
          <mxGeometry x="-35" y="100" width="60" height="30" as="geometry" />
        </mxCell>
        <mxCell id="ljxNdWzIBPx_CM_LcYyN-24" value="Crear" style="text;html=1;align=center;verticalAlign=middle;resizable=0;points=[];autosize=1;strokeColor=none;fillColor=none;" parent="ljxNdWzIBPx_CM_LcYyN-10" vertex="1">
          <mxGeometry x="-30" y="130" width="50" height="30" as="geometry" />
        </mxCell>
        <mxCell id="zJJ63YuxqZ6idGATVhV--9" value="" style="html=1;points=[];perimeter=orthogonalPerimeter;" vertex="1" parent="ljxNdWzIBPx_CM_LcYyN-10">
          <mxGeometry x="45" y="220" width="10" height="40" as="geometry" />
        </mxCell>
        <mxCell id="ljxNdWzIBPx_CM_LcYyN-11" value="" style="endArrow=classic;html=1;rounded=0;exitX=1;exitY=0.3333333333333333;exitDx=0;exitDy=0;exitPerimeter=0;" parent="1" source="ljxNdWzIBPx_CM_LcYyN-7" target="ljxNdWzIBPx_CM_LcYyN-10" edge="1">
          <mxGeometry width="50" height="50" relative="1" as="geometry">
            <mxPoint x="290" y="320" as="sourcePoint" />
            <mxPoint x="340" y="270" as="targetPoint" />
          </mxGeometry>
        </mxCell>
        <mxCell id="ljxNdWzIBPx_CM_LcYyN-14" value="Login" style="text;html=1;align=center;verticalAlign=middle;resizable=0;points=[];autosize=1;strokeColor=none;fillColor=none;" parent="1" vertex="1">
          <mxGeometry x="150" y="185" width="50" height="30" as="geometry" />
        </mxCell>
        <mxCell id="ljxNdWzIBPx_CM_LcYyN-17" value="Tiquet" style="shape=umlLifeline;perimeter=lifelinePerimeter;whiteSpace=wrap;html=1;container=1;collapsible=0;recursiveResize=0;outlineConnect=0;" parent="1" vertex="1">
          <mxGeometry x="300" y="270" width="100" height="330" as="geometry" />
        </mxCell>
        <mxCell id="zJJ63YuxqZ6idGATVhV--25" value="Tancament" style="rounded=0;whiteSpace=wrap;html=1;" vertex="1" parent="ljxNdWzIBPx_CM_LcYyN-17">
          <mxGeometry y="150" width="100" height="40" as="geometry" />
        </mxCell>
        <mxCell id="zJJ63YuxqZ6idGATVhV--26" style="edgeStyle=orthogonalEdgeStyle;rounded=0;orthogonalLoop=1;jettySize=auto;html=1;entryX=0.5;entryY=1;entryDx=0;entryDy=0;endArrow=none;endFill=0;" edge="1" parent="ljxNdWzIBPx_CM_LcYyN-17" source="ljxNdWzIBPx_CM_LcYyN-17" target="zJJ63YuxqZ6idGATVhV--25">
          <mxGeometry relative="1" as="geometry" />
        </mxCell>
        <mxCell id="ljxNdWzIBPx_CM_LcYyN-19" style="edgeStyle=orthogonalEdgeStyle;rounded=0;orthogonalLoop=1;jettySize=auto;html=1;dashed=1;" parent="1" source="ljxNdWzIBPx_CM_LcYyN-12" edge="1">
          <mxGeometry relative="1" as="geometry">
            <mxPoint x="120" y="250" as="targetPoint" />
            <Array as="points">
              <mxPoint x="200" y="250" />
              <mxPoint x="200" y="250" />
            </Array>
          </mxGeometry>
        </mxCell>
        <mxCell id="ljxNdWzIBPx_CM_LcYyN-22" value="" style="endArrow=classic;html=1;rounded=0;entryX=0;entryY=0.033;entryDx=0;entryDy=0;entryPerimeter=0;" parent="1" target="ljxNdWzIBPx_CM_LcYyN-17" edge="1">
          <mxGeometry width="50" height="50" relative="1" as="geometry">
            <mxPoint x="100" y="280" as="sourcePoint" />
            <mxPoint x="290" y="280" as="targetPoint" />
            <Array as="points">
              <mxPoint x="260" y="280" />
            </Array>
          </mxGeometry>
        </mxCell>
        <mxCell id="ljxNdWzIBPx_CM_LcYyN-32" value="return" style="html=1;verticalAlign=bottom;endArrow=open;dashed=1;endSize=8;rounded=0;" parent="1" edge="1">
          <mxGeometry relative="1" as="geometry">
            <mxPoint x="310" y="310" as="sourcePoint" />
            <mxPoint x="90" y="310" as="targetPoint" />
          </mxGeometry>
        </mxCell>
        <mxCell id="zJJ63YuxqZ6idGATVhV--14" style="edgeStyle=orthogonalEdgeStyle;rounded=0;orthogonalLoop=1;jettySize=auto;html=1;endArrow=none;endFill=0;dashed=1;startArrow=none;" edge="1" parent="1" source="zJJ63YuxqZ6idGATVhV--16">
          <mxGeometry relative="1" as="geometry">
            <mxPoint x="515" y="600" as="targetPoint" />
          </mxGeometry>
        </mxCell>
        <mxCell id="zJJ63YuxqZ6idGATVhV--1" value="Supervisor" style="shape=umlActor;verticalLabelPosition=bottom;verticalAlign=top;html=1;" vertex="1" parent="1">
          <mxGeometry x="500" y="230" width="30" height="60" as="geometry" />
        </mxCell>
        <mxCell id="zJJ63YuxqZ6idGATVhV--12" style="edgeStyle=orthogonalEdgeStyle;rounded=0;orthogonalLoop=1;jettySize=auto;html=1;endArrow=block;endFill=1;" edge="1" parent="1" source="zJJ63YuxqZ6idGATVhV--2" target="ljxNdWzIBPx_CM_LcYyN-10">
          <mxGeometry relative="1" as="geometry">
            <Array as="points">
              <mxPoint x="160" y="350" />
              <mxPoint x="160" y="350" />
            </Array>
          </mxGeometry>
        </mxCell>
        <mxCell id="zJJ63YuxqZ6idGATVhV--2" value="" style="html=1;points=[];perimeter=orthogonalPerimeter;" vertex="1" parent="1">
          <mxGeometry x="90" y="310" width="10" height="40" as="geometry" />
        </mxCell>
        <mxCell id="zJJ63YuxqZ6idGATVhV--11" value="" style="edgeStyle=orthogonalEdgeStyle;rounded=0;orthogonalLoop=1;jettySize=auto;html=1;dashed=1;endArrow=none;" edge="1" parent="1" source="ljxNdWzIBPx_CM_LcYyN-7" target="zJJ63YuxqZ6idGATVhV--2">
          <mxGeometry relative="1" as="geometry">
            <mxPoint x="95" y="580" as="targetPoint" />
            <mxPoint x="95" y="250" as="sourcePoint" />
          </mxGeometry>
        </mxCell>
        <mxCell id="zJJ63YuxqZ6idGATVhV--13" value="Pujar al sistema" style="text;html=1;align=center;verticalAlign=middle;resizable=0;points=[];autosize=1;strokeColor=none;fillColor=none;" vertex="1" parent="1">
          <mxGeometry x="110" y="320" width="110" height="30" as="geometry" />
        </mxCell>
        <mxCell id="zJJ63YuxqZ6idGATVhV--15" style="edgeStyle=orthogonalEdgeStyle;rounded=0;orthogonalLoop=1;jettySize=auto;html=1;endArrow=blockThin;endFill=1;entryX=-0.11;entryY=-0.019;entryDx=0;entryDy=0;entryPerimeter=0;" edge="1" parent="1" source="zJJ63YuxqZ6idGATVhV--9" target="zJJ63YuxqZ6idGATVhV--16">
          <mxGeometry relative="1" as="geometry">
            <mxPoint x="500" y="350" as="targetPoint" />
            <Array as="points">
              <mxPoint x="509" y="360" />
            </Array>
          </mxGeometry>
        </mxCell>
        <mxCell id="zJJ63YuxqZ6idGATVhV--21" style="edgeStyle=orthogonalEdgeStyle;rounded=0;orthogonalLoop=1;jettySize=auto;html=1;endArrow=blockThin;endFill=1;entryX=-0.002;entryY=0;entryDx=0;entryDy=0;entryPerimeter=0;" edge="1" parent="1" source="zJJ63YuxqZ6idGATVhV--16" target="zJJ63YuxqZ6idGATVhV--22">
          <mxGeometry relative="1" as="geometry">
            <mxPoint x="600" y="390" as="targetPoint" />
            <Array as="points">
              <mxPoint x="600" y="380" />
              <mxPoint x="600" y="380" />
            </Array>
          </mxGeometry>
        </mxCell>
        <mxCell id="zJJ63YuxqZ6idGATVhV--16" value="" style="html=1;points=[];perimeter=orthogonalPerimeter;" vertex="1" parent="1">
          <mxGeometry x="510" y="360" width="10" height="40" as="geometry" />
        </mxCell>
        <mxCell id="zJJ63YuxqZ6idGATVhV--17" value="" style="edgeStyle=orthogonalEdgeStyle;rounded=0;orthogonalLoop=1;jettySize=auto;html=1;endArrow=none;endFill=0;dashed=1;" edge="1" parent="1" source="zJJ63YuxqZ6idGATVhV--1" target="zJJ63YuxqZ6idGATVhV--16">
          <mxGeometry relative="1" as="geometry">
            <mxPoint x="515" y="590" as="targetPoint" />
            <mxPoint x="515" y="290" as="sourcePoint" />
          </mxGeometry>
        </mxCell>
        <mxCell id="zJJ63YuxqZ6idGATVhV--18" value="Recull per assignar" style="text;html=1;align=center;verticalAlign=middle;resizable=0;points=[];autosize=1;strokeColor=none;fillColor=none;" vertex="1" parent="1">
          <mxGeometry x="340" y="330" width="130" height="30" as="geometry" />
        </mxCell>
        <mxCell id="zJJ63YuxqZ6idGATVhV--20" style="edgeStyle=orthogonalEdgeStyle;rounded=0;orthogonalLoop=1;jettySize=auto;html=1;endArrow=none;endFill=0;dashed=1;" edge="1" parent="1" source="zJJ63YuxqZ6idGATVhV--19">
          <mxGeometry relative="1" as="geometry">
            <mxPoint x="685" y="600" as="targetPoint" />
          </mxGeometry>
        </mxCell>
        <mxCell id="zJJ63YuxqZ6idGATVhV--19" value="Tecnic&lt;br&gt;" style="shape=umlActor;verticalLabelPosition=bottom;verticalAlign=top;html=1;" vertex="1" parent="1">
          <mxGeometry x="670" y="290" width="30" height="60" as="geometry" />
        </mxCell>
        <mxCell id="zJJ63YuxqZ6idGATVhV--27" style="edgeStyle=orthogonalEdgeStyle;rounded=0;orthogonalLoop=1;jettySize=auto;html=1;entryX=1;entryY=0;entryDx=0;entryDy=0;endArrow=open;endFill=0;dashed=1;" edge="1" parent="1" source="zJJ63YuxqZ6idGATVhV--22" target="zJJ63YuxqZ6idGATVhV--25">
          <mxGeometry relative="1" as="geometry">
            <Array as="points">
              <mxPoint x="400" y="420" />
            </Array>
          </mxGeometry>
        </mxCell>
        <mxCell id="zJJ63YuxqZ6idGATVhV--22" value="Proces de resoluciÃ³" style="html=1;points=[];perimeter=orthogonalPerimeter;" vertex="1" parent="1">
          <mxGeometry x="610" y="380" width="150" height="40" as="geometry" />
        </mxCell>
        <mxCell id="zJJ63YuxqZ6idGATVhV--24" value="Es assignada" style="text;html=1;align=center;verticalAlign=middle;resizable=0;points=[];autosize=1;strokeColor=none;fillColor=none;" vertex="1" parent="1">
          <mxGeometry x="545" y="350" width="100" height="30" as="geometry" />
        </mxCell>
        <mxCell id="zJJ63YuxqZ6idGATVhV--28" value="" style="ellipse;html=1;shape=endState;fillColor=#000000;strokeColor=#ff0000;" vertex="1" parent="1">
          <mxGeometry x="430" y="670" width="30" height="30" as="geometry" />
        </mxCell>
        <mxCell id="zJJ63YuxqZ6idGATVhV--30" value="" style="endArrow=none;dashed=1;html=1;dashPattern=1 3;strokeWidth=2;rounded=0;exitX=1.081;exitY=0.733;exitDx=0;exitDy=0;exitPerimeter=0;" edge="1" parent="1" source="zJJ63YuxqZ6idGATVhV--28">
          <mxGeometry width="50" height="50" relative="1" as="geometry">
            <mxPoint x="320" y="510" as="sourcePoint" />
            <mxPoint x="680" y="600" as="targetPoint" />
            <Array as="points">
              <mxPoint x="620" y="680" />
            </Array>
          </mxGeometry>
        </mxCell>
        <mxCell id="zJJ63YuxqZ6idGATVhV--31" value="" style="endArrow=none;dashed=1;html=1;dashPattern=1 3;strokeWidth=2;rounded=0;exitX=0.738;exitY=0.067;exitDx=0;exitDy=0;exitPerimeter=0;" edge="1" parent="1" source="zJJ63YuxqZ6idGATVhV--28">
          <mxGeometry width="50" height="50" relative="1" as="geometry">
            <mxPoint x="480" y="630" as="sourcePoint" />
            <mxPoint x="510" y="600" as="targetPoint" />
          </mxGeometry>
        </mxCell>
        <mxCell id="zJJ63YuxqZ6idGATVhV--32" value="" style="endArrow=none;dashed=1;html=1;dashPattern=1 3;strokeWidth=2;rounded=0;exitX=0.346;exitY=0.069;exitDx=0;exitDy=0;exitPerimeter=0;" edge="1" parent="1" source="zJJ63YuxqZ6idGATVhV--28" target="ljxNdWzIBPx_CM_LcYyN-17">
          <mxGeometry width="50" height="50" relative="1" as="geometry">
            <mxPoint x="330" y="670" as="sourcePoint" />
            <mxPoint x="380" y="620" as="targetPoint" />
          </mxGeometry>
        </mxCell>
        <mxCell id="zJJ63YuxqZ6idGATVhV--33" value="" style="endArrow=none;dashed=1;html=1;dashPattern=1 3;strokeWidth=2;rounded=0;exitX=0.033;exitY=0.352;exitDx=0;exitDy=0;exitPerimeter=0;" edge="1" parent="1" source="zJJ63YuxqZ6idGATVhV--28" target="ljxNdWzIBPx_CM_LcYyN-10">
          <mxGeometry width="50" height="50" relative="1" as="geometry">
            <mxPoint x="280" y="690" as="sourcePoint" />
            <mxPoint x="330" y="640" as="targetPoint" />
          </mxGeometry>
        </mxCell>
        <mxCell id="zJJ63YuxqZ6idGATVhV--34" value="" style="endArrow=none;dashed=1;html=1;dashPattern=1 3;strokeWidth=2;rounded=0;exitX=0.014;exitY=0.638;exitDx=0;exitDy=0;exitPerimeter=0;" edge="1" parent="1" source="zJJ63YuxqZ6idGATVhV--28">
          <mxGeometry width="50" height="50" relative="1" as="geometry">
            <mxPoint x="220" y="700" as="sourcePoint" />
            <mxPoint x="100" y="600" as="targetPoint" />
            <Array as="points">
              <mxPoint x="180" y="670" />
            </Array>
          </mxGeometry>
        </mxCell>
        <mxCell id="zJJ63YuxqZ6idGATVhV--35" value="Inici" style="text;html=1;strokeColor=none;fillColor=none;align=center;verticalAlign=middle;whiteSpace=wrap;rounded=0;" vertex="1" parent="1">
          <mxGeometry x="60" width="60" height="30" as="geometry" />
        </mxCell>
        <mxCell id="zJJ63YuxqZ6idGATVhV--36" value="Fi" style="text;html=1;strokeColor=none;fillColor=none;align=center;verticalAlign=middle;whiteSpace=wrap;rounded=0;" vertex="1" parent="1">
          <mxGeometry x="415" y="710" width="60" height="30" as="geometry" />
        </mxCell>
      </root>
    </mxGraphModel>
  </diagram>
</mxfile>
